<svg width="133" height="28" viewBox="0 0 133 28" fill="none" xmlns="http://www.w3.org/2000/svg">
<g clip-path="url(#clip0_58324_467757)">
<path d="M20.12 23.0983C20.12 25.8881 17.8633 28.1494 15.0795 28.1494C12.2958 28.1494 10.0391 25.8881 10.0391 23.0983V5.21386C10.0391 2.42422 12.2958 0.16278 15.0795 0.162781C17.8633 0.162781 20.12 2.42422 20.12 5.21386V23.0983Z" fill="#2E37A4"/>
<path d="M15.2021 9.17288C17.9488 9.17288 20.1756 11.4043 20.1756 14.1568C20.1756 16.9093 17.9488 19.1407 15.2021 19.1407H6.02033C3.27357 19.1407 1.04688 16.9093 1.04688 14.1568C1.04688 11.4043 3.27357 9.17288 6.02032 9.17288H15.2021Z" fill="#2E37A4"/>
<path d="M24.0029 9.17288C26.7497 9.17288 28.9764 11.4043 28.9764 14.1568C28.9764 16.9093 26.7497 19.1407 24.0029 19.1407H15.0125C12.2657 19.1407 10.0391 16.9093 10.0391 14.1568C10.0391 11.4043 12.2657 9.17288 15.0125 9.17288H24.0029Z" fill="#00D3C7"/>
<path d="M20.1773 9.17288V19.1407H15.0125C12.2657 19.1407 10.0391 16.9093 10.0391 14.1568C10.0391 11.4043 12.2657 9.17288 15.0125 9.17288H20.1773Z" fill="white"/>
<path d="M119.762 7.65085H123.785L125.998 14.6172C126.059 14.7964 126.103 14.9831 126.132 15.1772C126.177 15.3564 126.215 15.5505 126.244 15.7596C126.274 15.9537 126.297 16.1628 126.311 16.3868H126.378C126.423 16.0433 126.475 15.7297 126.535 15.446C126.61 15.1473 126.684 14.8785 126.758 14.6396L128.971 7.65085H132.905L127.853 21.158C127.526 22.0689 127.109 22.8305 126.602 23.4428C126.11 24.07 125.514 24.5404 124.813 24.854C124.128 25.1676 123.324 25.3244 122.399 25.3244C122.027 25.3244 121.7 25.302 121.416 25.2572C121.133 25.2273 120.887 25.19 120.678 25.1452V22.166C120.842 22.1959 121.036 22.2257 121.259 22.2556C121.499 22.2855 121.744 22.3004 121.997 22.3004C122.474 22.3004 122.869 22.2033 123.182 22.0092C123.495 21.8151 123.756 21.5537 123.964 21.2252C124.173 20.9116 124.344 20.5681 124.478 20.1948L124.612 19.814L119.762 7.65085Z" fill="white"/>
<path d="M119.575 10.4731H116.803V19.9482H113.048V10.4731H111.305V8.63629L113.093 7.67309V7.09069C113.093 6.03042 113.249 5.19416 113.562 4.58189C113.875 3.95469 114.352 3.50669 114.993 3.23789C115.634 2.95416 116.416 2.81229 117.34 2.81229C117.996 2.81229 118.585 2.86456 119.106 2.96909C119.627 3.07362 120.111 3.20056 120.558 3.34989L119.664 5.94829C119.441 5.88856 119.188 5.82882 118.904 5.76909C118.622 5.70936 118.309 5.67949 117.966 5.67949C117.563 5.67949 117.266 5.80642 117.071 6.06029C116.893 6.29922 116.803 6.64269 116.803 7.09069V7.65069H119.575V10.4731Z" fill="white"/>
<path d="M109.194 7.65066V19.9483H105.439V7.65066H109.194ZM107.339 2.76746C107.875 2.76746 108.345 2.88693 108.747 3.12586C109.149 3.36479 109.351 3.82773 109.351 4.51466C109.351 5.18666 109.149 5.64959 108.747 5.90346C108.345 6.14239 107.875 6.26186 107.339 6.26186C106.773 6.26186 106.288 6.14239 105.886 5.90346C105.498 5.64959 105.305 5.18666 105.305 4.51466C105.305 3.82773 105.498 3.36479 105.886 3.12586C106.288 2.88693 106.773 2.76746 107.339 2.76746Z" fill="white"/>
<path d="M102.188 19.9485H98.4102V2.9245H102.188V19.9485Z" fill="white"/>
<path d="M91.3092 7.42685C92.6801 7.42685 93.7754 7.97191 94.5951 9.06205C95.4146 10.1372 95.8245 11.7053 95.8245 13.7661C95.8245 15.1698 95.6233 16.3495 95.221 17.3053C94.8186 18.261 94.2672 18.9778 93.5668 19.4557C92.8813 19.9335 92.0915 20.1725 91.1974 20.1725C90.6163 20.1725 90.117 20.0978 89.6998 19.9485C89.2974 19.7991 88.9472 19.6125 88.6492 19.3885C88.366 19.1495 88.1276 18.9106 87.9339 18.6717H87.7774C87.8221 18.9554 87.8593 19.2541 87.8892 19.5677C87.9189 19.8813 87.9339 20.2173 87.9339 20.5757V25.3245H84.1562V7.65085H87.2186L87.7551 9.21885H87.9339C88.1424 8.89031 88.3958 8.59165 88.6939 8.32285C89.0068 8.05405 89.3793 7.83751 89.8115 7.67325C90.2436 7.50898 90.7429 7.42685 91.3092 7.42685ZM89.9904 10.406C89.4836 10.406 89.0813 10.518 88.7833 10.7421C88.5001 10.9661 88.2915 11.3021 88.1574 11.7501C88.0233 12.1831 87.9488 12.7357 87.9339 13.4077V13.7437C87.9339 14.4754 87.9935 15.0951 88.1127 15.6029C88.2468 16.0957 88.4629 16.4765 88.761 16.7453C89.0739 16.9991 89.4986 17.1261 90.0351 17.1261C90.4672 17.1261 90.8248 17.0066 91.108 16.7677C91.406 16.5138 91.6221 16.133 91.7563 15.6253C91.9052 15.1175 91.9798 14.4829 91.9798 13.7213C91.9798 12.5714 91.8158 11.7351 91.488 11.2125C91.1601 10.6749 90.661 10.406 89.9904 10.406Z" fill="white"/>
<path d="M76.7054 7.42685C78.1062 7.42685 79.1642 7.78525 79.8795 8.50205C80.6097 9.20391 80.9748 10.3463 80.9748 11.9293V19.9485H77.2195V12.9821C77.2195 12.0861 77.0779 11.4365 76.7948 11.0333C76.5266 10.6151 76.1093 10.406 75.5431 10.406C74.7532 10.406 74.1944 10.7197 73.8666 11.3469C73.5387 11.9591 73.3748 12.8402 73.3748 13.9901V19.9485H69.6195V12.9821C69.6195 12.3997 69.5598 11.9218 69.4407 11.5485C69.3215 11.1602 69.1426 10.8765 68.9042 10.6973C68.6657 10.5031 68.3528 10.406 67.9654 10.406C67.414 10.406 66.9744 10.5628 66.6466 10.8765C66.3336 11.1751 66.1101 11.6157 65.976 12.1981C65.8567 12.7805 65.7972 13.4973 65.7972 14.3485V19.9485H62.0195V7.65085H64.8807L65.4172 9.19645H65.5736C65.812 8.80818 66.1101 8.48711 66.4678 8.23325C66.8254 7.96445 67.2351 7.76285 67.6972 7.62845C68.1591 7.49405 68.6584 7.42685 69.1948 7.42685C70.0889 7.42685 70.8415 7.57618 71.4525 7.87485C72.0634 8.17351 72.5403 8.60658 72.8831 9.17405H73.1066C73.494 8.59165 74.0081 8.15858 74.6489 7.87485C75.2897 7.57618 75.9751 7.42685 76.7054 7.42685Z" fill="white"/>
<path d="M47.2695 7.65085H51.2931L53.506 14.6172C53.5656 14.7964 53.6103 14.9831 53.6401 15.1772C53.6848 15.3564 53.722 15.5505 53.7519 15.7596C53.7817 15.9537 53.8041 16.1628 53.8189 16.3868H53.886C53.9307 16.0433 53.9829 15.7297 54.0425 15.446C54.117 15.1473 54.1915 14.8785 54.266 14.6396L56.4789 7.65085H60.4131L55.3613 21.158C55.0335 22.0689 54.6162 22.8305 54.1095 23.4428C53.6178 24.07 53.0217 24.5404 52.3213 24.854C51.6358 25.1676 50.8311 25.3244 49.9072 25.3244C49.5347 25.3244 49.2067 25.302 48.9236 25.2572C48.6405 25.2273 48.3947 25.19 48.186 25.1452V22.166C48.35 22.1959 48.5436 22.2257 48.7672 22.2556C49.0056 22.2855 49.2515 22.3004 49.5048 22.3004C49.9817 22.3004 50.3766 22.2033 50.6895 22.0092C51.0025 21.8151 51.2632 21.5537 51.4719 21.2252C51.6805 20.9116 51.8519 20.5681 51.986 20.1948L52.1201 19.814L47.2695 7.65085Z" fill="white"/>
<path d="M46.4315 15.3116C46.4315 16.2225 46.2079 17.0513 45.7609 17.798C45.3138 18.5297 44.6432 19.1121 43.7491 19.5452C42.855 19.9633 41.7298 20.1724 40.3738 20.1724C39.7479 20.1724 39.1667 20.1351 38.6303 20.0604C38.0938 19.9857 37.5797 19.8812 37.0879 19.7468C36.611 19.5975 36.1416 19.4108 35.6797 19.1868V15.7148C36.4844 16.0881 37.304 16.4017 38.1385 16.6556C38.9879 16.9095 39.8001 17.0364 40.575 17.0364C41.0667 17.0364 41.4616 16.9767 41.7597 16.8572C42.0726 16.7228 42.2962 16.5511 42.4303 16.342C42.5793 16.118 42.6538 15.8641 42.6538 15.5804C42.6538 15.2369 42.5346 14.9457 42.2962 14.7068C42.0726 14.4529 41.7373 14.214 41.2903 13.99C40.8432 13.7511 40.2993 13.4823 39.6585 13.1836C39.1816 12.9745 38.7122 12.7356 38.2503 12.4668C37.8032 12.1831 37.3934 11.862 37.0209 11.5036C36.6632 11.1303 36.3726 10.6897 36.1491 10.182C35.9404 9.65936 35.8362 9.04709 35.8362 8.34523C35.8362 7.34469 36.0672 6.50843 36.5291 5.83643C37.006 5.14949 37.6691 4.62683 38.5185 4.26843C39.3679 3.91003 40.3663 3.73083 41.5138 3.73083C42.4526 3.73083 43.3169 3.83536 44.1067 4.04443C44.8966 4.25349 45.664 4.52229 46.4091 4.85083L45.202 7.83004C44.4867 7.51644 43.8162 7.27749 43.1903 7.11323C42.5793 6.93403 41.9832 6.84443 41.402 6.84443C40.9997 6.84443 40.6644 6.90416 40.3962 7.02363C40.1279 7.12816 39.9267 7.28496 39.7926 7.49403C39.6585 7.68816 39.5915 7.91963 39.5915 8.18843C39.5915 8.50203 39.6957 8.77829 39.9044 9.01723C40.1131 9.24123 40.4409 9.47269 40.8879 9.71164C41.335 9.95056 41.9236 10.2418 42.6538 10.5852C43.4436 10.9436 44.1216 11.3319 44.6879 11.75C45.2542 12.1681 45.6863 12.6609 45.9844 13.2284C46.2825 13.7809 46.4315 14.4753 46.4315 15.3116Z" fill="white"/>
</g>
<defs>
<clipPath id="clip0_58324_467757">
<rect width="133" height="28" fill="white"/>
</clipPath>
</defs>
</svg>
